<svg class="icon" viewBox="0 0 1024 1024" version="1.1" xmlns="http://www.w3.org/2000/svg" width="24" height="24" xmlns:xlink="http://www.w3.org/1999/xlink">
    <path d="M853.333333 0c94.2592 0 170.666667 76.407467 170.666667 170.666667v682.666666c0 94.2592-76.407467 170.666667-170.666667 170.666667H170.666667c-94.2592 0-170.666667-76.407467-170.666667-170.666667V170.666667C0 76.407467 76.407467 0 170.666667 0h682.666666z m-144.270222 525.653333c-21.543822 0-41.642667 3.714844-60.302222 11.150223-18.659556 7.435378-33.678222 18.659556-45.056 33.678222s-17.066667 33.297067-17.066667 54.840889c0 20.3264 4.852622 36.7104 14.563556 49.152 9.710933 12.4416 21.390222 21.771378 35.043555 27.989333 12.8512 5.853867 29.195378 11.776 49.032534 17.760711l6.735644 2.030933 5.711645 1.763556 5.387377 1.706667 5.0688 1.649777 4.750223 1.592889 4.437333 1.536 4.107378 1.479111 3.7888 1.422223c0.603022 0.227556 1.194667 0.4608 1.774933 0.688355 9.255822 3.640889 16.992711 8.647111 23.210667 15.018667s9.329778 14.409956 9.329777 24.120889c0 12.1344-4.625067 21.390222-13.880888 27.761778s-21.771378 9.557333-37.546667 9.557333c-19.416178 0-36.107378-4.704711-50.062222-14.108445-13.294933-8.96-23.552-21.356089-30.793956-37.193955l-1.063822-2.400711-53.703111 30.492444c8.192 26.396444 24.7296 46.802489 49.607111 61.212445 24.877511 14.409956 52.792889 21.617778 83.740444 21.617777 21.236622 0 41.187556-3.640889 59.847111-10.922666 18.659556-7.281778 33.831822-18.5856 45.511112-33.905778s17.521778-34.360889 17.521777-57.116444c0-20.935111-5.080178-37.848178-15.246222-50.744889-10.166044-12.896711-22.3744-22.601956-36.636444-29.127111-14.262044-6.525156-32.312889-12.970667-54.158223-19.342223l-5.540977-1.683911-5.256534-1.627022-4.955022-1.5872-4.670578-1.530311-4.380444-1.479111-4.084622-1.4336-3.7888-1.388089-3.504356-1.3312c-8.948622-3.487289-16.310044-8.0384-22.072889-13.653333-5.762844-5.614933-8.647111-12.669156-8.647111-21.162667 0-11.224178 4.625067-20.252444 13.880889-27.079111 9.255822-6.826667 21.316267-10.24 36.181333-10.24 16.384 0 30.037333 4.022044 40.96 12.060444 10.313956 7.594667 18.198756 17.959822 23.643023 31.101156l0.932977 2.349511 53.703111-30.492445c-6.070044-22.755556-19.569778-40.8064-40.504888-54.158222-20.935111-13.351822-46.119822-20.024889-75.548445-20.024889zM295.822222 523.377778c-94.2592 0-170.666667 76.407467-170.666666 170.666666 0 94.2592 76.407467 170.666667 170.666666 170.666667 94.2592 0 170.666667-76.407467 170.666667-170.666667 0-94.2592-76.407467-170.666667-170.666667-170.666666z m0 62.577778c59.693511 0 108.088889 48.395378 108.088889 108.088888s-48.395378 108.088889-108.088889 108.088889-108.088889-48.395378-108.088889-108.088889 48.395378-108.088889 108.088889-108.088888zM220.501333 116.280889h-65.991111V449.422222h65.991111V306.062222h150.186667V449.422222h66.446222V116.280889H370.688v131.072h-150.186667V116.280889z m367.502223 0h-52.337778V449.422222h62.350222V233.699556l85.105778 126.976h34.588444l84.650667-126.065778V449.422222h62.805333V116.280889h-50.062222l-113.322667 172.487111-113.777777-172.487111z" fill="#000000"></path>
    <path d="M182.044444 898.844444h222.435556v56.888889H182.044444z" fill="#5B8AEE"></path>
</svg>